<svg width="72" height="99" viewBox="0 0 72 99" fill="none" xmlns="http://www.w3.org/2000/svg">
<circle cx="36.9773" cy="46.0988" r="6" fill="black"/>
<path d="M0 91.5019V0H19.0331V34.4026H19.6139C20.4479 32.5558 21.6542 30.6793 23.2329 28.773C24.8413 26.837 26.9263 25.2285 29.4879 23.9478C32.0793 22.6372 35.2961 21.9819 39.1385 21.9819C44.1425 21.9819 48.7593 23.2925 52.9889 25.9136C57.2185 28.505 60.5991 32.4218 63.1309 37.6641C65.6627 42.8766 66.9286 49.4146 66.9286 57.278C66.9286 64.933 65.6925 71.3965 63.2203 76.6686C60.7779 81.9108 57.4418 85.8873 53.2123 88.5978C49.0125 91.2785 44.3063 92.6188 39.0938 92.6188C35.4004 92.6188 32.258 92.0082 29.6666 90.787C27.105 89.5658 25.0051 88.0318 23.3669 86.1851C21.7287 84.3086 20.4777 82.4172 19.6139 80.5109H18.765V91.5019H0ZM18.631 57.1887C18.631 61.2693 19.1969 64.8287 20.3288 67.8669C21.4606 70.905 23.0989 73.273 25.2434 74.9708C27.388 76.6388 29.9943 77.4728 33.0622 77.4728C36.1599 77.4728 38.7811 76.6239 40.9256 74.9261C43.0702 73.1985 44.6935 70.8157 45.7956 67.7775C46.9275 64.7096 47.4934 61.18 47.4934 57.1887C47.4934 53.2272 46.9424 49.7422 45.8403 46.7339C44.7382 43.7255 43.1149 41.3724 40.9703 39.6746C38.8257 37.9768 36.1897 37.128 33.0622 37.128C29.9645 37.128 27.3433 37.9471 25.1988 39.5853C23.084 41.2235 21.4606 43.5468 20.3288 46.5551C19.1969 49.5635 18.631 53.108 18.631 57.1887Z" fill="black"/>
<path d="M38.4236 99.0079C32.258 99.0079 26.971 98.159 22.5627 96.4612C18.1842 94.7932 14.6993 92.5146 12.1079 89.6254C9.51655 86.7361 7.83366 83.4895 7.05923 79.8854L24.6626 77.5175C25.1988 78.8876 26.0477 80.1684 27.2093 81.3598C28.3709 82.5512 29.9049 83.5044 31.8112 84.2193C33.7473 84.9639 36.1003 85.3362 38.8704 85.3362C43.0106 85.3362 46.4211 84.3235 49.1018 82.2981C51.8123 80.3024 53.1676 76.9515 53.1676 72.2454V59.6907H52.3634C51.5294 61.597 50.2784 63.399 48.6104 65.0968C46.9424 66.7946 44.7978 68.1796 42.1766 69.2519C39.5555 70.3242 36.428 70.8603 32.7941 70.8603C27.6412 70.8603 22.9499 69.6689 18.7204 67.286C14.5206 64.8734 11.1697 61.1949 8.66766 56.2504C6.19544 51.2762 4.95933 44.9914 4.95933 37.396C4.95933 29.6219 6.22522 23.1286 8.75701 17.9161C11.2888 12.7036 14.6546 8.80169 18.8544 6.21033C23.084 3.61897 27.7157 2.32329 32.7494 2.32329C36.5918 2.32329 39.8087 2.97858 42.4 4.28915C44.9914 5.56994 47.0764 7.17837 48.655 9.11444C50.2635 11.0207 51.4996 12.8972 52.3634 14.744H53.0782V3.21686H71.9773V72.5134C71.9773 78.3515 70.5476 83.2363 67.6881 87.168C64.8287 91.0998 60.8672 94.0486 55.8036 96.0144C50.7698 98.0101 44.9765 99.0079 38.4236 99.0079ZM38.8257 56.5632C41.8937 56.5632 44.485 55.8036 46.5998 54.2846C48.7444 52.7357 50.3826 50.5315 51.5145 47.6721C52.6761 44.7829 53.2569 41.3277 53.2569 37.3067C53.2569 33.2856 52.691 29.8007 51.5592 26.8519C50.4273 23.8733 48.7891 21.5649 46.6445 19.9267C44.4999 18.2885 41.8937 17.4694 38.8257 17.4694C35.6982 17.4694 33.0622 18.3182 30.9176 20.016C28.773 21.684 27.1497 24.0073 26.0476 26.9859C24.9456 29.9645 24.3945 33.4047 24.3945 37.3067C24.3945 41.2682 24.9456 44.6935 26.0476 47.5828C27.1795 50.4422 28.8028 52.6612 30.9176 54.2399C33.0622 55.7887 35.6982 56.5632 38.8257 56.5632Z" fill="black"/>
</svg>
